<?xml version="1.0" encoding="utf-8"?>
<!-- Generator: Adobe Illustrator 24.1.3, SVG Export Plug-In . SVG Version: 6.00 Build 0)  -->
<svg version="1.1" id="Layer_1" xmlns="http://www.w3.org/2000/svg" xmlns:xlink="http://www.w3.org/1999/xlink" x="0px" y="0px"
	 viewBox="0 0 841.89 595.28" style="enable-background:new 0 0 841.89 595.28;" xml:space="preserve">
<style type="text/css">
	.st0{fill:#FFFFFF;}
	.st1{opacity:0.25;}
	.st2{fill:none;stroke:#F36E24;stroke-width:4.6137;stroke-miterlimit:10;}
	.st3{fill:none;stroke:#F36E24;stroke-width:3.691;stroke-miterlimit:10;}
	.st4{fill:#F36E21;}
</style>
<rect x="-15.19" y="-35.48" class="st0" width="868.11" height="638.04"/>
<g class="st1">
	<path class="st2" d="M106.42,59.24c1.07,7.53-6.64,19.38-18.2,19.38c-11.27,0-18.9-11.23-18.2-19.38c0.38-4.4,3.72-8.48,4.94-9.86
		c0.1-0.12,0.22-0.24,0.37-0.41c1.01-1.11,3.66-4.02,5.94-5.78c2.31-1.78,4.31-3.32,6.95-3.31c2.6,0,4.49,1.5,7.73,4.1
		c2.92,2.34,4.71,4.58,5.16,5.16C102.48,50.87,105.84,55.16,106.42,59.24z"/>
	<circle class="st3" cx="88.24" cy="25.99" r="8.44"/>
	<rect x="85.94" y="34.42" class="st4" width="4.15" height="67.81"/>
	<rect x="90.09" y="97.92" class="st4" width="15.23" height="4.32"/>
	<rect x="90.09" y="86.83" class="st4" width="15.23" height="4.32"/>
	<path class="st4" d="M76.57,49.66c1.38-0.43,2.11,1.19,4.22,1.64c3.33,0.72,6.13-2.34,7.03-1.41c0.38,0.39,0.2,1.25-0.08,1.8
		c-1.76,3.44-12.1,2.82-12.81,0.39C74.68,51.23,75.58,49.97,76.57,49.66z"/>
	<path class="st4" d="M72.2,57.71c1.83-0.43,2.8,1.19,5.59,1.64c4.42,0.72,8.13-2.34,9.32-1.41c0.5,0.39,0.27,1.25-0.1,1.8
		c-2.34,3.44-16.05,2.82-16.99,0.39C69.69,59.27,70.88,58.02,72.2,57.71z"/>
	<path class="st4" d="M72.2,66.53c1.83-0.43,2.8,1.19,5.59,1.64c4.42,0.72,8.13-2.34,9.32-1.41c0.5,0.39,0.27,1.25-0.1,1.8
		c-2.34,3.44-16.05,2.82-16.99,0.39C69.69,68.1,70.88,66.85,72.2,66.53z"/>
	<path class="st4" d="M99.51,49.66c-1.38-0.43-2.11,1.19-4.22,1.64c-3.33,0.72-6.13-2.34-7.03-1.41c-0.38,0.39-0.2,1.25,0.08,1.8
		c1.76,3.44,12.1,2.82,12.81,0.39C101.4,51.23,100.5,49.97,99.51,49.66z"/>
	<path class="st4" d="M103.88,57.71c-1.83-0.43-2.8,1.19-5.59,1.64c-4.42,0.72-8.13-2.34-9.32-1.41c-0.5,0.39-0.27,1.25,0.1,1.8
		c2.34,3.44,16.05,2.82,16.99,0.39C106.39,59.27,105.2,58.02,103.88,57.71z"/>
	<path class="st4" d="M103.88,66.53c-1.83-0.43-2.8,1.19-5.59,1.64c-4.42,0.72-8.13-2.34-9.32-1.41c-0.5,0.39-0.27,1.25,0.1,1.8
		c2.34,3.44,16.05,2.82,16.99,0.39C106.39,68.1,105.2,66.85,103.88,66.53z"/>
	<path class="st3" d="M74.3,29.18c-9.35-2.32-19.55,5.49-24.69,12.81c-5.15,7.34-8.92,19.5-4.84,22.81
		c3.14,2.55,14.49-5.96,37.19-22.97c0.74-0.55,2.33-1.78,2.5-3.59C84.79,34.59,79.17,30.39,74.3,29.18z"/>
	<path class="st3" d="M101.65,29.18c9.35-2.32,19.55,5.49,24.69,12.81c5.15,7.34,8.92,19.5,4.84,22.81
		c-3.14,2.55-14.49-5.96-37.19-22.97c-0.74-0.55-2.33-1.78-2.5-3.59C91.16,34.59,96.78,30.39,101.65,29.18z"/>
	<path class="st4" d="M85.64,19.42c1.28-1.2-0.62-6.67-4.38-8.91c-0.64-0.38-2.1-1.25-3.44-0.7c-0.76,0.31-1.65,1.15-1.48,1.95
		c0.12,0.56,0.73,1.02,1.33,1.09c1,0.12,1.37-0.9,2.5-1.02c1.1-0.11,2.03,0.73,2.42,1.09c1.74,1.59,1.72,4.16,1.72,4.3
		c-0.02,1.2-0.43,2,0,2.34C84.63,19.84,85.29,19.75,85.64,19.42z"/>
	<path class="st4" d="M90.49,19.42c-1.28-1.2,0.62-6.67,4.38-8.91c0.64-0.38,2.1-1.25,3.44-0.7c0.76,0.31,1.65,1.15,1.48,1.95
		c-0.12,0.56-0.73,1.02-1.33,1.09c-1,0.12-1.37-0.9-2.5-1.02c-1.1-0.11-2.03,0.73-2.42,1.09c-1.74,1.59-1.72,4.16-1.72,4.3
		c0.02,1.2,0.43,2,0,2.34C91.5,19.84,90.84,19.75,90.49,19.42z"/>
</g>
<g class="st1">
	<path class="st2" d="M203.51,467.24c1.07,7.53-6.64,19.38-18.2,19.38c-11.27,0-18.9-11.23-18.2-19.38c0.38-4.4,3.72-8.48,4.94-9.86
		c0.1-0.12,0.22-0.24,0.37-0.41c1.01-1.11,3.66-4.02,5.94-5.78c2.31-1.78,4.31-3.32,6.95-3.31c2.6,0,4.49,1.5,7.73,4.1
		c2.92,2.34,4.71,4.58,5.16,5.16C199.57,458.88,202.93,463.17,203.51,467.24z"/>
	<circle class="st3" cx="185.33" cy="433.99" r="8.44"/>
	<rect x="183.02" y="442.43" class="st4" width="4.15" height="67.81"/>
	<rect x="187.18" y="505.92" class="st4" width="15.23" height="4.32"/>
	<rect x="187.18" y="494.83" class="st4" width="15.23" height="4.32"/>
	<path class="st4" d="M173.66,457.66c1.38-0.43,2.11,1.19,4.22,1.64c3.33,0.72,6.13-2.34,7.03-1.41c0.38,0.39,0.2,1.25-0.08,1.8
		c-1.76,3.44-12.1,2.82-12.81,0.39C171.77,459.23,172.67,457.98,173.66,457.66z"/>
	<path class="st4" d="M169.29,465.71c1.83-0.43,2.8,1.19,5.59,1.64c4.42,0.72,8.13-2.34,9.32-1.41c0.5,0.39,0.27,1.25-0.1,1.8
		c-2.34,3.44-16.05,2.82-16.99,0.39C166.78,467.28,167.96,466.02,169.29,465.71z"/>
	<path class="st4" d="M169.29,474.54c1.83-0.43,2.8,1.19,5.59,1.64c4.42,0.72,8.13-2.34,9.32-1.41c0.5,0.39,0.27,1.25-0.1,1.8
		c-2.34,3.44-16.05,2.82-16.99,0.39C166.78,476.1,167.96,474.85,169.29,474.54z"/>
	<path class="st4" d="M196.59,457.66c-1.38-0.43-2.11,1.19-4.22,1.64c-3.33,0.72-6.13-2.34-7.03-1.41c-0.38,0.39-0.2,1.25,0.08,1.8
		c1.76,3.44,12.1,2.82,12.81,0.39C198.49,459.23,197.59,457.98,196.59,457.66z"/>
	<path class="st4" d="M200.97,465.71c-1.83-0.43-2.8,1.19-5.59,1.64c-4.42,0.72-8.13-2.34-9.32-1.41c-0.5,0.39-0.27,1.25,0.1,1.8
		c2.34,3.44,16.05,2.82,16.99,0.39C203.48,467.28,202.29,466.02,200.97,465.71z"/>
	<path class="st4" d="M200.97,474.54c-1.83-0.43-2.8,1.19-5.59,1.64c-4.42,0.72-8.13-2.34-9.32-1.41c-0.5,0.39-0.27,1.25,0.1,1.8
		c2.34,3.44,16.05,2.82,16.99,0.39C203.48,476.1,202.29,474.85,200.97,474.54z"/>
	<path class="st3" d="M171.39,437.18c-9.35-2.32-19.55,5.49-24.69,12.81c-5.15,7.34-8.92,19.5-4.84,22.81
		c3.14,2.55,14.49-5.96,37.19-22.97c0.74-0.55,2.33-1.78,2.5-3.59C181.88,442.59,176.26,438.39,171.39,437.18z"/>
	<path class="st3" d="M198.74,437.18c9.35-2.32,19.55,5.49,24.69,12.81c5.15,7.34,8.92,19.5,4.84,22.81
		c-3.14,2.55-14.49-5.96-37.19-22.97c-0.74-0.55-2.33-1.78-2.5-3.59C188.25,442.59,193.87,438.39,198.74,437.18z"/>
	<path class="st4" d="M182.73,427.43c1.28-1.2-0.62-6.67-4.38-8.91c-0.64-0.38-2.1-1.25-3.44-0.7c-0.76,0.31-1.65,1.15-1.48,1.95
		c0.12,0.56,0.73,1.02,1.33,1.09c1,0.12,1.37-0.9,2.5-1.02c1.1-0.11,2.03,0.73,2.42,1.09c1.74,1.59,1.72,4.16,1.72,4.3
		c-0.02,1.2-0.43,2,0,2.34C181.72,427.84,182.38,427.75,182.73,427.43z"/>
	<path class="st4" d="M187.58,427.43c-1.28-1.2,0.62-6.67,4.38-8.91c0.64-0.38,2.1-1.25,3.44-0.7c0.76,0.31,1.65,1.15,1.48,1.95
		c-0.12,0.56-0.73,1.02-1.33,1.09c-1,0.12-1.37-0.9-2.5-1.02c-1.1-0.11-2.03,0.73-2.42,1.09c-1.74,1.59-1.72,4.16-1.72,4.3
		c0.02,1.2,0.43,2,0,2.34C188.59,427.84,187.92,427.75,187.58,427.43z"/>
</g>
<g class="st1">
	<path class="st2" d="M25.58,545.97c1.07,7.53-6.64,19.38-18.2,19.38c-11.27,0-18.9-11.23-18.2-19.38c0.38-4.4,3.72-8.48,4.94-9.86
		c0.1-0.12,0.22-0.24,0.37-0.41c1.01-1.11,3.66-4.02,5.94-5.78c2.31-1.78,4.31-3.32,6.95-3.31c2.6,0,4.49,1.5,7.73,4.1
		c2.92,2.34,4.71,4.58,5.16,5.16C21.64,537.61,25,541.9,25.58,545.97z"/>
	<circle class="st3" cx="7.4" cy="512.72" r="8.44"/>
	<rect x="5.09" y="521.16" class="st4" width="4.15" height="67.81"/>
	<rect x="9.25" y="584.66" class="st4" width="15.23" height="4.32"/>
	<rect x="9.25" y="573.56" class="st4" width="15.23" height="4.32"/>
	<path class="st4" d="M-4.27,536.4c1.38-0.43,2.11,1.19,4.22,1.64c3.33,0.72,6.13-2.34,7.03-1.41c0.38,0.39,0.2,1.25-0.08,1.8
		c-1.76,3.44-12.1,2.82-12.81,0.39C-6.16,537.96-5.27,536.71-4.27,536.4z"/>
	<path class="st4" d="M-8.64,544.44c1.83-0.43,2.8,1.19,5.59,1.64c4.42,0.72,8.13-2.34,9.32-1.41c0.5,0.39,0.27,1.25-0.1,1.8
		c-2.34,3.44-16.05,2.82-16.99,0.39C-11.15,546.01-9.97,544.76-8.64,544.44z"/>
	<path class="st4" d="M-8.64,553.27c1.83-0.43,2.8,1.19,5.59,1.64c4.42,0.72,8.13-2.34,9.32-1.41c0.5,0.39,0.27,1.25-0.1,1.8
		c-2.34,3.44-16.05,2.82-16.99,0.39C-11.15,554.84-9.97,553.58-8.64,553.27z"/>
	<path class="st4" d="M18.66,536.4c-1.38-0.43-2.11,1.19-4.22,1.64c-3.33,0.72-6.13-2.34-7.03-1.41c-0.38,0.39-0.2,1.25,0.08,1.8
		c1.76,3.44,12.1,2.82,12.81,0.39C20.55,537.96,19.66,536.71,18.66,536.4z"/>
	<path class="st4" d="M23.04,544.44c-1.83-0.43-2.8,1.19-5.59,1.64c-4.42,0.72-8.13-2.34-9.32-1.41c-0.5,0.39-0.27,1.25,0.1,1.8
		c2.34,3.44,16.05,2.82,16.99,0.39C25.55,546.01,24.36,544.76,23.04,544.44z"/>
	<path class="st4" d="M23.04,553.27c-1.83-0.43-2.8,1.19-5.59,1.64c-4.42,0.72-8.13-2.34-9.32-1.41c-0.5,0.39-0.27,1.25,0.1,1.8
		c2.34,3.44,16.05,2.82,16.99,0.39C25.55,554.84,24.36,553.58,23.04,553.27z"/>
	<path class="st3" d="M-6.54,515.91c-9.35-2.32-19.55,5.49-24.69,12.81c-5.15,7.34-8.92,19.5-4.84,22.81
		c3.14,2.55,14.49-5.96,37.19-22.97c0.74-0.55,2.33-1.78,2.5-3.59C3.95,521.33-1.67,517.12-6.54,515.91z"/>
	<path class="st3" d="M20.81,515.91c9.35-2.32,19.55,5.49,24.69,12.81c5.15,7.34,8.92,19.5,4.84,22.81
		c-3.14,2.55-14.49-5.96-37.19-22.97c-0.74-0.55-2.33-1.78-2.5-3.59C10.32,521.33,15.94,517.12,20.81,515.91z"/>
	<path class="st4" d="M4.8,506.16c1.28-1.2-0.62-6.67-4.38-8.91c-0.64-0.38-2.1-1.25-3.44-0.7c-0.76,0.31-1.65,1.15-1.48,1.95
		c0.12,0.56,0.73,1.02,1.33,1.09c1,0.12,1.37-0.9,2.5-1.02c1.1-0.11,2.03,0.73,2.42,1.09c1.74,1.59,1.72,4.16,1.72,4.3
		c-0.02,1.2-0.43,2,0,2.34C3.79,506.57,4.45,506.48,4.8,506.16z"/>
	<path class="st4" d="M9.65,506.16c-1.28-1.2,0.62-6.67,4.38-8.91c0.64-0.38,2.1-1.25,3.44-0.7c0.76,0.31,1.65,1.15,1.48,1.95
		c-0.12,0.56-0.73,1.02-1.33,1.09c-1,0.12-1.37-0.9-2.5-1.02c-1.1-0.11-2.03,0.73-2.42,1.09c-1.74,1.59-1.72,4.16-1.72,4.3
		c0.02,1.2,0.43,2,0,2.34C10.66,506.57,9.99,506.48,9.65,506.16z"/>
</g>
<g class="st1">
	<path class="st2" d="M259.02,235.41c-4.86,5.84-18.82,8.09-26.58-0.49c-7.57-8.36-4.37-21.55,2.14-26.5
		c3.51-2.67,8.78-2.94,10.63-2.96c0.16,0,0.33,0,0.56,0c1.5,0,5.44,0.01,8.27,0.52c2.87,0.52,5.35,0.96,7.12,2.93
		c1.75,1.93,1.91,4.34,2.16,8.48c0.23,3.73-0.24,6.57-0.36,7.28C262.58,226.88,261.65,232.25,259.02,235.41z"/>
	<circle class="st3" cx="271.46" cy="199.62" r="8.44"/>
	
		<rect x="237.85" y="193.97" transform="matrix(0.6713 0.7412 -0.7412 0.6713 247.7548 -102.9261)" class="st4" width="4.15" height="67.81"/>
	
		<rect x="215.28" y="254.21" transform="matrix(0.6713 0.7412 -0.7412 0.6713 263.2819 -80.9412)" class="st4" width="15.23" height="4.32"/>
	
		<rect x="223.5" y="246.77" transform="matrix(0.6713 0.7412 -0.7412 0.6713 260.4647 -89.4834)" class="st4" width="15.23" height="4.32"/>
	<path class="st4" d="M246.08,206.86c1.25,0.73,0.54,2.36,1.62,4.23c1.71,2.95,5.85,2.98,5.76,4.27c-0.04,0.54-0.79,0.99-1.38,1.15
		c-3.74,1-10.22-7.07-8.89-9.23C243.65,206.51,245.18,206.33,246.08,206.86z"/>
	<path class="st4" d="M237.18,209.02c1.55,1.06,1,2.87,2.54,5.25c2.44,3.75,7.19,4.46,7.3,5.97c0.05,0.63-0.75,1.04-1.4,1.13
		c-4.12,0.58-12.86-10-11.69-12.33C234.34,208.21,236.06,208.25,237.18,209.02z"/>
	<path class="st4" d="M230.64,214.95c1.55,1.06,1,2.87,2.54,5.25c2.44,3.75,7.19,4.46,7.3,5.97c0.05,0.63-0.75,1.04-1.4,1.13
		c-4.12,0.58-12.86-10-11.69-12.33C227.8,214.14,229.52,214.18,230.64,214.95z"/>
	<path class="st4" d="M261.48,223.86c-0.6-1.31-2.3-0.77-4.05-2.03c-2.77-1.99-2.38-6.11-3.68-6.16c-0.54-0.02-1.06,0.69-1.28,1.26
		c-1.37,3.62,6.03,10.87,8.31,9.76C261.59,226.31,261.91,224.81,261.48,223.86z"/>
	<path class="st4" d="M258.45,232.5c-0.91-1.65-2.76-1.27-4.97-3.04c-3.5-2.79-3.73-7.59-5.22-7.85c-0.63-0.11-1.11,0.64-1.26,1.28
		c-0.98,4.05,8.68,13.79,11.11,12.85C258.97,235.41,259.11,233.69,258.45,232.5z"/>
	<path class="st4" d="M251.91,238.43c-0.91-1.65-2.76-1.27-4.97-3.04c-3.5-2.79-3.73-7.59-5.22-7.85c-0.63-0.11-1.11,0.64-1.26,1.28
		c-0.98,4.05,8.68,13.79,11.11,12.85C252.43,241.34,252.56,239.62,251.91,238.43z"/>
	<path class="st3" d="M259.74,191.43c-4.56-8.49-17.19-10.81-26.07-9.7c-8.9,1.11-20.44,6.48-20.16,11.72
		c0.22,4.04,14.14,6.74,41.99,12.14c0.9,0.17,2.89,0.53,4.34-0.56C262.77,202.84,262.11,195.85,259.74,191.43z"/>
	<path class="st3" d="M278.1,211.7c7.99,5.37,9.06,18.17,7.08,26.9c-1.99,8.75-8.47,19.7-13.66,18.9c-4-0.62-5.31-14.74-7.94-42.98
		c-0.09-0.91-0.24-2.92,0.99-4.27C267.04,207.56,273.93,208.9,278.1,211.7z"/>
	<path class="st4" d="M274.58,193.28c1.75,0.15,4.53-4.94,3.66-9.22c-0.15-0.73-0.48-2.39-1.79-3.02c-0.74-0.35-1.96-0.45-2.44,0.21
		c-0.33,0.46-0.27,1.22,0.08,1.72c0.58,0.83,1.59,0.41,2.43,1.17c0.83,0.74,0.82,1.99,0.82,2.53c-0.01,2.35-1.93,4.07-2.03,4.16
		c-0.91,0.79-1.77,1.03-1.74,1.57C273.59,192.81,274.1,193.24,274.58,193.28z"/>
	<path class="st4" d="M277.83,196.88c0.03-1.75,5.36-4.02,9.54-2.74c0.71,0.22,2.34,0.71,2.83,2.08c0.28,0.77,0.26,2-0.45,2.41
		c-0.49,0.29-1.24,0.15-1.7-0.25c-0.76-0.66-0.25-1.62-0.93-2.53c-0.66-0.89-1.9-1.01-2.44-1.06c-2.34-0.22-4.24,1.52-4.34,1.61
		c-0.88,0.82-1.19,1.66-1.74,1.57C278.21,197.9,277.83,197.35,277.83,196.88z"/>
</g>
<g class="st1">
	<path class="st2" d="M387.51,597.94c-4.86,5.84-18.82,8.09-26.58-0.49c-7.57-8.36-4.37-21.55,2.14-26.5
		c3.51-2.67,8.78-2.94,10.63-2.96c0.16,0,0.33,0,0.56,0c1.5,0,5.44,0.01,8.27,0.52c2.87,0.52,5.35,0.96,7.12,2.93
		c1.75,1.93,1.91,4.34,2.16,8.48c0.23,3.73-0.24,6.57-0.36,7.28C391.07,589.41,390.15,594.78,387.51,597.94z"/>
	<circle class="st3" cx="399.96" cy="562.15" r="8.44"/>
	
		<rect x="366.34" y="556.5" transform="matrix(0.6713 0.7412 -0.7412 0.6713 558.6907 -79.001)" class="st4" width="4.15" height="67.81"/>
	
		<rect x="343.78" y="616.75" transform="matrix(0.6713 0.7412 -0.7412 0.6713 574.2177 -57.0161)" class="st4" width="15.23" height="4.32"/>
	
		<rect x="352" y="609.3" transform="matrix(0.6713 0.7412 -0.7412 0.6713 571.4005 -65.5583)" class="st4" width="15.23" height="4.32"/>
	<path class="st4" d="M374.58,569.39c1.25,0.73,0.54,2.36,1.62,4.23c1.71,2.95,5.85,2.98,5.76,4.27c-0.04,0.54-0.79,0.99-1.38,1.15
		c-3.74,1-10.22-7.07-8.89-9.23C372.15,569.04,373.67,568.87,374.58,569.39z"/>
	<path class="st4" d="M365.67,571.55c1.55,1.06,1,2.87,2.54,5.25c2.44,3.75,7.19,4.46,7.3,5.97c0.05,0.63-0.75,1.04-1.4,1.13
		c-4.12,0.58-12.86-10-11.69-12.33C362.83,570.75,364.55,570.78,365.67,571.55z"/>
	<path class="st4" d="M359.13,577.48c1.55,1.06,1,2.87,2.54,5.25c2.44,3.75,7.19,4.46,7.3,5.97c0.05,0.63-0.75,1.04-1.4,1.13
		c-4.12,0.58-12.86-10-11.69-12.33C356.29,576.67,358.01,576.71,359.13,577.48z"/>
	<path class="st4" d="M389.97,586.39c-0.6-1.31-2.3-0.77-4.05-2.03c-2.77-1.99-2.38-6.11-3.68-6.16c-0.54-0.02-1.06,0.69-1.28,1.26
		c-1.37,3.62,6.03,10.87,8.31,9.76C390.08,588.84,390.41,587.34,389.97,586.39z"/>
	<path class="st4" d="M386.94,595.04c-0.91-1.65-2.76-1.27-4.97-3.04c-3.5-2.79-3.73-7.59-5.22-7.85c-0.63-0.11-1.11,0.64-1.26,1.28
		c-0.98,4.05,8.68,13.79,11.11,12.85C387.47,597.94,387.6,596.23,386.94,595.04z"/>
	<path class="st4" d="M380.4,600.96c-0.91-1.65-2.76-1.27-4.97-3.04c-3.5-2.79-3.73-7.59-5.22-7.85c-0.63-0.11-1.11,0.64-1.26,1.28
		c-0.98,4.05,8.68,13.79,11.11,12.85C380.92,603.87,381.06,602.15,380.4,600.96z"/>
	<path class="st3" d="M388.23,553.96c-4.56-8.49-17.19-10.81-26.07-9.7c-8.9,1.11-20.44,6.48-20.16,11.72
		c0.22,4.04,14.14,6.74,41.99,12.14c0.9,0.17,2.89,0.53,4.34-0.56C391.26,565.37,390.6,558.38,388.23,553.96z"/>
	<path class="st3" d="M406.59,574.23c7.99,5.37,9.06,18.17,7.08,26.9c-1.99,8.75-8.47,19.7-13.66,18.9
		c-4-0.62-5.31-14.74-7.94-42.98c-0.09-0.91-0.24-2.92,0.99-4.27C395.54,570.09,402.43,571.43,406.59,574.23z"/>
	<path class="st4" d="M403.07,555.81c1.75,0.15,4.53-4.94,3.66-9.22c-0.15-0.73-0.48-2.39-1.79-3.02c-0.74-0.35-1.96-0.45-2.44,0.21
		c-0.33,0.46-0.27,1.22,0.08,1.72c0.58,0.83,1.59,0.41,2.43,1.17c0.83,0.74,0.82,1.99,0.82,2.53c-0.01,2.35-1.93,4.07-2.03,4.16
		c-0.91,0.79-1.77,1.03-1.74,1.57C402.09,555.34,402.6,555.77,403.07,555.81z"/>
	<path class="st4" d="M406.33,559.41c0.03-1.75,5.36-4.02,9.54-2.74c0.71,0.22,2.34,0.72,2.83,2.08c0.28,0.77,0.26,2-0.45,2.41
		c-0.49,0.29-1.24,0.15-1.7-0.25c-0.76-0.66-0.25-1.62-0.93-2.53c-0.66-0.89-1.9-1.01-2.44-1.06c-2.34-0.22-4.24,1.52-4.34,1.61
		c-0.88,0.82-1.19,1.66-1.74,1.57C406.7,560.43,406.32,559.88,406.33,559.41z"/>
</g>
<g class="st1">
	<path class="st2" d="M492.36,141.48c-4.86,5.84-18.82,8.09-26.58-0.49c-7.57-8.36-4.37-21.55,2.14-26.5
		c3.51-2.67,8.78-2.94,10.63-2.96c0.16,0,0.33,0,0.56,0c1.5,0,5.44,0.01,8.27,0.52c2.87,0.52,5.35,0.96,7.12,2.93
		c1.75,1.93,1.91,4.34,2.16,8.48c0.23,3.73-0.24,6.57-0.36,7.28C495.92,132.95,495,138.31,492.36,141.48z"/>
	<circle class="st3" cx="504.81" cy="105.68" r="8.44"/>
	
		<rect x="471.19" y="100.03" transform="matrix(0.6713 0.7412 -0.7412 0.6713 254.8309 -306.7496)" class="st4" width="4.15" height="67.81"/>
	
		<rect x="448.63" y="160.28" transform="matrix(0.6713 0.7412 -0.7412 0.6713 270.3579 -284.7647)" class="st4" width="15.23" height="4.32"/>
	
		<rect x="456.85" y="152.83" transform="matrix(0.6713 0.7412 -0.7412 0.6713 267.5407 -293.3069)" class="st4" width="15.23" height="4.32"/>
	<path class="st4" d="M479.43,112.93c1.25,0.73,0.54,2.36,1.62,4.23c1.71,2.95,5.85,2.98,5.76,4.27c-0.04,0.54-0.79,0.99-1.38,1.15
		c-3.74,1-10.22-7.07-8.89-9.23C477,112.58,478.52,112.4,479.43,112.93z"/>
	<path class="st4" d="M470.52,115.09c1.55,1.06,1,2.87,2.54,5.25c2.44,3.75,7.19,4.46,7.3,5.97c0.05,0.63-0.75,1.04-1.4,1.13
		c-4.12,0.58-12.86-10-11.69-12.33C467.68,114.28,469.4,114.32,470.52,115.09z"/>
	<path class="st4" d="M463.98,121.01c1.55,1.06,1,2.87,2.54,5.25c2.44,3.75,7.19,4.46,7.3,5.97c0.05,0.63-0.75,1.04-1.4,1.13
		c-4.12,0.58-12.86-10-11.69-12.33C461.14,120.21,462.86,120.24,463.98,121.01z"/>
	<path class="st4" d="M494.82,129.92c-0.6-1.31-2.3-0.77-4.05-2.03c-2.77-1.99-2.38-6.11-3.68-6.16c-0.54-0.02-1.06,0.69-1.28,1.26
		c-1.37,3.62,6.03,10.87,8.31,9.76C494.93,132.38,495.26,130.87,494.82,129.92z"/>
	<path class="st4" d="M491.79,138.57c-0.91-1.65-2.76-1.27-4.97-3.04c-3.5-2.79-3.73-7.59-5.22-7.85c-0.63-0.11-1.11,0.64-1.26,1.28
		c-0.98,4.05,8.68,13.79,11.11,12.85C492.32,141.48,492.45,139.76,491.79,138.57z"/>
	<path class="st4" d="M485.25,144.5c-0.91-1.65-2.76-1.27-4.97-3.04c-3.5-2.79-3.73-7.59-5.22-7.85c-0.63-0.11-1.11,0.64-1.26,1.28
		c-0.98,4.05,8.68,13.79,11.11,12.85C485.77,147.4,485.91,145.69,485.25,144.5z"/>
	<path class="st3" d="M493.08,97.49c-4.56-8.49-17.19-10.81-26.07-9.7c-8.9,1.11-20.44,6.48-20.16,11.72
		c0.22,4.04,14.14,6.74,41.99,12.14c0.9,0.17,2.89,0.53,4.34-0.56C496.11,108.9,495.45,101.91,493.08,97.49z"/>
	<path class="st3" d="M511.44,117.77c7.99,5.37,9.06,18.17,7.08,26.9c-1.99,8.75-8.47,19.7-13.66,18.9
		c-4-0.62-5.31-14.74-7.94-42.98c-0.09-0.91-0.24-2.92,0.99-4.27C500.39,113.62,507.28,114.97,511.44,117.77z"/>
	<path class="st4" d="M507.92,99.35c1.75,0.15,4.52-4.94,3.66-9.22c-0.15-0.73-0.48-2.39-1.79-3.02c-0.74-0.35-1.96-0.45-2.44,0.21
		c-0.33,0.46-0.27,1.22,0.08,1.72c0.58,0.83,1.59,0.41,2.43,1.17c0.83,0.74,0.82,1.99,0.82,2.53c-0.01,2.35-1.93,4.07-2.03,4.16
		c-0.91,0.79-1.77,1.03-1.74,1.57C506.94,98.87,507.45,99.31,507.92,99.35z"/>
	<path class="st4" d="M511.18,102.94c0.03-1.75,5.36-4.02,9.54-2.74c0.71,0.22,2.34,0.71,2.83,2.08c0.28,0.77,0.26,2-0.45,2.41
		c-0.49,0.29-1.24,0.15-1.7-0.25c-0.76-0.66-0.25-1.62-0.93-2.53c-0.66-0.89-1.9-1.01-2.44-1.06c-2.34-0.22-4.24,1.52-4.34,1.61
		c-0.88,0.82-1.19,1.66-1.74,1.57C511.55,103.97,511.17,103.42,511.18,102.94z"/>
</g>
<g class="st1">
	<path class="st2" d="M618.57,536.35c-4.86,5.84-18.82,8.09-26.58-0.49c-7.57-8.36-4.37-21.55,2.14-26.5
		c3.51-2.67,8.78-2.94,10.63-2.96c0.16,0,0.33,0,0.56,0c1.5,0,5.44,0.01,8.27,0.52c2.87,0.52,5.35,0.96,7.12,2.93
		c1.75,1.93,1.91,4.34,2.16,8.48c0.23,3.73-0.24,6.57-0.36,7.28C622.12,527.83,621.2,533.19,618.57,536.35z"/>
	<circle class="st3" cx="631.01" cy="500.56" r="8.44"/>
	
		<rect x="597.39" y="494.91" transform="matrix(0.6713 0.7412 -0.7412 0.6713 588.9879 -270.4967)" class="st4" width="4.15" height="67.81"/>
	
		<rect x="574.83" y="555.16" transform="matrix(0.6713 0.7412 -0.7412 0.6713 604.5149 -248.5118)" class="st4" width="15.23" height="4.32"/>
	
		<rect x="583.05" y="547.71" transform="matrix(0.6713 0.7412 -0.7412 0.6713 601.6977 -257.054)" class="st4" width="15.23" height="4.32"/>
	<path class="st4" d="M605.63,507.81c1.25,0.73,0.54,2.36,1.62,4.23c1.71,2.95,5.85,2.98,5.76,4.27c-0.04,0.54-0.79,0.99-1.38,1.15
		c-3.74,1-10.22-7.07-8.89-9.23C603.2,507.46,604.73,507.28,605.63,507.81z"/>
	<path class="st4" d="M596.73,509.96c1.55,1.06,1,2.87,2.54,5.25c2.44,3.75,7.19,4.46,7.3,5.97c0.05,0.63-0.75,1.04-1.4,1.13
		c-4.12,0.58-12.86-10-11.69-12.33C593.89,509.16,595.61,509.2,596.73,509.96z"/>
	<path class="st4" d="M590.19,515.89c1.55,1.06,1,2.87,2.54,5.25c2.44,3.75,7.19,4.46,7.3,5.97c0.05,0.63-0.75,1.04-1.4,1.13
		c-4.12,0.58-12.86-10-11.69-12.33C587.34,515.08,589.06,515.12,590.19,515.89z"/>
	<path class="st4" d="M621.02,524.8c-0.6-1.31-2.3-0.77-4.05-2.03c-2.77-1.99-2.38-6.11-3.68-6.16c-0.54-0.02-1.06,0.69-1.28,1.26
		c-1.37,3.62,6.03,10.87,8.31,9.76C621.13,527.25,621.46,525.75,621.02,524.8z"/>
	<path class="st4" d="M618,533.45c-0.91-1.65-2.76-1.27-4.97-3.04c-3.5-2.79-3.73-7.59-5.22-7.85c-0.63-0.11-1.11,0.64-1.26,1.28
		c-0.98,4.05,8.68,13.79,11.11,12.85C618.52,536.36,618.65,534.64,618,533.45z"/>
	<path class="st4" d="M611.45,539.37c-0.91-1.65-2.76-1.27-4.97-3.04c-3.5-2.79-3.73-7.59-5.22-7.85c-0.63-0.11-1.11,0.64-1.26,1.28
		c-0.98,4.05,8.68,13.79,11.11,12.85C611.98,542.28,612.11,540.57,611.45,539.37z"/>
	<path class="st3" d="M619.28,492.37c-4.56-8.49-17.19-10.81-26.07-9.7c-8.9,1.11-20.44,6.48-20.16,11.72
		c0.22,4.04,14.14,6.74,41.99,12.14c0.9,0.17,2.89,0.53,4.34-0.56C622.32,503.78,621.66,496.79,619.28,492.37z"/>
	<path class="st3" d="M637.65,512.65c7.99,5.37,9.06,18.17,7.08,26.9c-1.99,8.75-8.47,19.7-13.66,18.9
		c-4-0.62-5.31-14.74-7.94-42.98c-0.09-0.91-0.24-2.92,0.99-4.27C626.59,508.5,633.48,509.85,637.65,512.65z"/>
	<path class="st4" d="M634.12,494.23c1.75,0.15,4.53-4.94,3.66-9.22c-0.15-0.73-0.48-2.39-1.79-3.02c-0.74-0.35-1.96-0.45-2.44,0.21
		c-0.33,0.46-0.27,1.22,0.08,1.72c0.58,0.83,1.59,0.41,2.43,1.17c0.83,0.74,0.82,1.99,0.82,2.53c-0.01,2.35-1.93,4.07-2.03,4.16
		c-0.91,0.79-1.77,1.03-1.74,1.57C633.14,493.75,633.65,494.19,634.12,494.23z"/>
	<path class="st4" d="M637.38,497.82c0.03-1.75,5.36-4.02,9.54-2.74c0.71,0.22,2.34,0.71,2.83,2.08c0.28,0.77,0.26,2-0.45,2.41
		c-0.49,0.29-1.24,0.15-1.7-0.25c-0.76-0.66-0.25-1.62-0.93-2.53c-0.66-0.89-1.9-1.01-2.44-1.06c-2.34-0.22-4.24,1.52-4.34,1.61
		c-0.88,0.82-1.19,1.66-1.74,1.57C637.75,498.85,637.37,498.3,637.38,497.82z"/>
</g>
<g class="st1">
	<path class="st2" d="M831.21,436.12c-4.86,5.84-18.82,8.09-26.58-0.49c-7.57-8.36-4.37-21.55,2.14-26.5
		c3.51-2.67,8.78-2.94,10.63-2.96c0.16,0,0.33,0,0.56,0c1.5,0,5.44,0.01,8.27,0.52c2.87,0.52,5.35,0.96,7.12,2.93
		c1.75,1.93,1.91,4.34,2.16,8.48c0.23,3.73-0.24,6.57-0.36,7.28C834.77,427.59,833.84,432.96,831.21,436.12z"/>
	<circle class="st3" cx="843.65" cy="400.33" r="8.44"/>
	
		<rect x="810.04" y="394.68" transform="matrix(0.6713 0.7412 -0.7412 0.6713 584.5914 -461.05)" class="st4" width="4.15" height="67.81"/>
	
		<rect x="787.47" y="454.92" transform="matrix(0.6713 0.7412 -0.7412 0.6713 600.1184 -439.0652)" class="st4" width="15.23" height="4.32"/>
	
		<rect x="795.7" y="447.48" transform="matrix(0.6713 0.7412 -0.7412 0.6713 597.3012 -447.6074)" class="st4" width="15.23" height="4.32"/>
	<path class="st4" d="M818.28,407.57c1.25,0.73,0.54,2.36,1.62,4.23c1.71,2.95,5.85,2.98,5.76,4.27c-0.04,0.54-0.79,0.99-1.38,1.15
		c-3.74,1-10.22-7.07-8.89-9.23C815.85,407.22,817.37,407.04,818.28,407.57z"/>
	<path class="st4" d="M809.37,409.73c1.55,1.06,1,2.87,2.54,5.25c2.44,3.75,7.19,4.46,7.3,5.97c0.05,0.63-0.75,1.04-1.4,1.13
		c-4.12,0.58-12.86-10-11.69-12.33C806.53,408.92,808.25,408.96,809.37,409.73z"/>
	<path class="st4" d="M802.83,415.66c1.55,1.06,1,2.87,2.54,5.25c2.44,3.75,7.19,4.46,7.3,5.97c0.05,0.63-0.75,1.04-1.4,1.13
		c-4.12,0.58-12.86-10-11.69-12.33C799.99,414.85,801.71,414.89,802.83,415.66z"/>
	<path class="st4" d="M833.67,424.57c-0.6-1.31-2.3-0.77-4.05-2.03c-2.77-1.99-2.38-6.11-3.68-6.16c-0.54-0.02-1.06,0.69-1.28,1.26
		c-1.37,3.62,6.03,10.87,8.31,9.76C833.78,427.02,834.11,425.52,833.67,424.57z"/>
	<path class="st4" d="M830.64,433.21c-0.91-1.65-2.76-1.27-4.97-3.04c-3.5-2.79-3.73-7.59-5.22-7.85c-0.63-0.11-1.11,0.64-1.26,1.28
		c-0.98,4.05,8.68,13.79,11.11,12.85C831.17,436.12,831.3,434.41,830.64,433.21z"/>
	<path class="st4" d="M824.1,439.14c-0.91-1.65-2.76-1.27-4.97-3.04c-3.5-2.79-3.73-7.59-5.22-7.85c-0.63-0.11-1.11,0.64-1.26,1.28
		c-0.98,4.05,8.68,13.79,11.11,12.85C824.62,442.05,824.76,440.33,824.1,439.14z"/>
	<path class="st3" d="M831.93,392.14c-4.56-8.49-17.19-10.81-26.07-9.7c-8.9,1.11-20.44,6.48-20.16,11.72
		c0.22,4.04,14.14,6.74,41.99,12.14c0.9,0.17,2.89,0.53,4.34-0.56C834.96,403.55,834.3,396.56,831.93,392.14z"/>
	<path class="st3" d="M850.29,412.41c7.99,5.37,9.06,18.17,7.08,26.9c-1.99,8.75-8.47,19.7-13.66,18.9
		c-4-0.62-5.31-14.74-7.94-42.98c-0.09-0.91-0.24-2.92,0.99-4.27C839.23,408.27,846.13,409.61,850.29,412.41z"/>
	<path class="st4" d="M846.77,393.99c1.75,0.15,4.53-4.94,3.66-9.22c-0.15-0.73-0.48-2.39-1.79-3.02c-0.74-0.35-1.96-0.45-2.44,0.21
		c-0.33,0.46-0.27,1.22,0.08,1.72c0.58,0.83,1.59,0.41,2.43,1.17c0.83,0.74,0.82,1.99,0.82,2.53c-0.01,2.35-1.93,4.07-2.03,4.16
		c-0.91,0.79-1.77,1.03-1.74,1.57C845.79,393.52,846.3,393.95,846.77,393.99z"/>
	<path class="st4" d="M850.03,397.59c0.03-1.75,5.36-4.02,9.54-2.74c0.71,0.22,2.34,0.71,2.83,2.08c0.28,0.77,0.26,2-0.45,2.41
		c-0.49,0.29-1.24,0.15-1.7-0.25c-0.76-0.66-0.25-1.62-0.93-2.53c-0.66-0.89-1.9-1.01-2.44-1.06c-2.34-0.22-4.24,1.52-4.34,1.61
		c-0.88,0.82-1.19,1.66-1.74,1.57C850.4,398.61,850.02,398.06,850.03,397.59z"/>
</g>
<g class="st1">
	<path class="st2" d="M704.9,39.49c-4.86,5.84-18.82,8.09-26.58-0.49c-7.57-8.36-4.37-21.55,2.14-26.5
		c3.51-2.67,8.78-2.94,10.63-2.96c0.16,0,0.33,0,0.56,0c1.5,0,5.44,0.01,8.27,0.52c2.87,0.52,5.35,0.96,7.12,2.93
		c1.75,1.93,1.91,4.34,2.16,8.48c0.23,3.73-0.24,6.57-0.36,7.28C708.45,30.96,707.53,36.33,704.9,39.49z"/>
	<circle class="st3" cx="717.34" cy="3.7" r="8.44"/>
	
		<rect x="683.72" y="-1.95" transform="matrix(0.6713 0.7412 -0.7412 0.6713 249.0983 -497.7956)" class="st4" width="4.15" height="67.81"/>
	
		<rect x="661.16" y="58.29" transform="matrix(0.6713 0.7412 -0.7412 0.6713 264.6254 -475.8107)" class="st4" width="15.23" height="4.32"/>
	
		<rect x="669.38" y="50.85" transform="matrix(0.6713 0.7412 -0.7412 0.6713 261.8082 -484.353)" class="st4" width="15.23" height="4.32"/>
	<path class="st4" d="M691.96,10.94c1.25,0.73,0.54,2.36,1.62,4.23c1.71,2.95,5.85,2.98,5.76,4.27c-0.04,0.54-0.79,0.99-1.38,1.15
		c-3.74,1-10.22-7.07-8.89-9.23C689.53,10.59,691.06,10.41,691.96,10.94z"/>
	<path class="st4" d="M683.06,13.1c1.55,1.06,1,2.87,2.54,5.25c2.44,3.75,7.19,4.46,7.3,5.97c0.05,0.63-0.75,1.04-1.4,1.13
		c-4.12,0.58-12.86-10-11.69-12.33C680.21,12.29,681.94,12.33,683.06,13.1z"/>
	<path class="st4" d="M676.51,19.03c1.55,1.06,1,2.87,2.54,5.25c2.44,3.75,7.19,4.46,7.3,5.97c0.05,0.63-0.75,1.04-1.4,1.13
		c-4.12,0.58-12.86-10-11.69-12.33C673.67,18.22,675.39,18.26,676.51,19.03z"/>
	<path class="st4" d="M707.35,27.94c-0.6-1.31-2.3-0.77-4.05-2.03c-2.77-1.99-2.38-6.11-3.68-6.16c-0.54-0.02-1.06,0.69-1.28,1.26
		c-1.37,3.62,6.03,10.87,8.31,9.76C707.46,30.39,707.79,28.89,707.35,27.94z"/>
	<path class="st4" d="M704.33,36.58c-0.91-1.65-2.76-1.27-4.97-3.04c-3.5-2.79-3.73-7.59-5.22-7.85c-0.63-0.11-1.11,0.64-1.26,1.28
		c-0.98,4.05,8.68,13.79,11.11,12.85C704.85,39.49,704.98,37.77,704.33,36.58z"/>
	<path class="st4" d="M697.78,42.51c-0.91-1.65-2.76-1.27-4.97-3.04c-3.5-2.79-3.73-7.59-5.22-7.85c-0.63-0.11-1.11,0.64-1.26,1.28
		c-0.98,4.05,8.68,13.79,11.11,12.85C698.3,45.42,698.44,43.7,697.78,42.51z"/>
	<path class="st3" d="M705.61-4.49c-4.56-8.49-17.19-10.81-26.07-9.7c-8.9,1.11-20.44,6.48-20.16,11.72
		c0.22,4.04,14.14,6.74,41.99,12.14c0.9,0.17,2.89,0.53,4.34-0.56C708.65,6.92,707.99-0.07,705.61-4.49z"/>
	<path class="st3" d="M723.98,15.78c7.99,5.37,9.06,18.17,7.08,26.9c-1.99,8.75-8.47,19.7-13.66,18.9c-4-0.62-5.31-14.74-7.94-42.98
		c-0.09-0.91-0.24-2.92,0.99-4.27C712.92,11.64,719.81,12.98,723.98,15.78z"/>
	<path class="st4" d="M720.45-2.64c1.75,0.15,4.53-4.94,3.66-9.22c-0.15-0.73-0.48-2.39-1.79-3.02c-0.74-0.35-1.96-0.45-2.44,0.21
		c-0.33,0.46-0.27,1.22,0.08,1.72c0.58,0.83,1.59,0.41,2.43,1.17c0.83,0.74,0.82,1.99,0.82,2.53c-0.01,2.35-1.93,4.07-2.03,4.16
		c-0.91,0.79-1.77,1.03-1.74,1.57C719.47-3.11,719.98-2.68,720.45-2.64z"/>
	<path class="st4" d="M723.71,0.96c0.03-1.75,5.36-4.02,9.54-2.74c0.71,0.22,2.34,0.71,2.83,2.08c0.28,0.77,0.26,2-0.45,2.41
		c-0.49,0.29-1.24,0.15-1.7-0.25c-0.76-0.66-0.25-1.62-0.93-2.53c-0.66-0.89-1.9-1.01-2.44-1.06c-2.34-0.22-4.24,1.52-4.34,1.61
		c-0.88,0.82-1.19,1.66-1.74,1.57C724.08,1.98,723.7,1.43,723.71,0.96z"/>
</g>
<g class="st1">
	<path class="st2" d="M353.88,18.97c1.07,7.53-6.64,19.38-18.2,19.38c-11.27,0-18.9-11.23-18.2-19.38c0.38-4.4,3.72-8.48,4.94-9.86
		c0.1-0.12,0.22-0.24,0.37-0.41c1.01-1.11,3.66-4.02,5.94-5.78c2.31-1.78,4.31-3.32,6.95-3.31c2.6,0,4.49,1.5,7.73,4.1
		c2.92,2.34,4.71,4.58,5.16,5.16C349.95,10.61,353.31,14.89,353.88,18.97z"/>
	<circle class="st3" cx="335.71" cy="-14.28" r="8.44"/>
	<rect x="333.4" y="-5.84" class="st4" width="4.15" height="67.81"/>
	<rect x="337.56" y="57.65" class="st4" width="15.23" height="4.32"/>
	<rect x="337.56" y="46.56" class="st4" width="15.23" height="4.32"/>
	<path class="st4" d="M324.04,9.39c1.38-0.43,2.11,1.19,4.22,1.64c3.33,0.72,6.13-2.34,7.03-1.41c0.38,0.39,0.2,1.25-0.08,1.8
		c-1.76,3.44-12.1,2.82-12.81,0.39C322.15,10.96,323.04,9.71,324.04,9.39z"/>
	<path class="st4" d="M319.66,17.44c1.83-0.43,2.8,1.19,5.59,1.64c4.42,0.72,8.13-2.34,9.32-1.41c0.5,0.39,0.27,1.25-0.1,1.8
		c-2.34,3.44-16.05,2.82-16.99,0.39C317.16,19,318.34,17.75,319.66,17.44z"/>
	<path class="st4" d="M319.66,26.27c1.83-0.43,2.8,1.19,5.59,1.64c4.42,0.72,8.13-2.34,9.32-1.41c0.5,0.39,0.27,1.25-0.1,1.8
		c-2.34,3.44-16.05,2.82-16.99,0.39C317.16,27.83,318.34,26.58,319.66,26.27z"/>
	<path class="st4" d="M346.97,9.39c-1.38-0.43-2.11,1.19-4.22,1.64c-3.33,0.72-6.13-2.34-7.03-1.41c-0.38,0.39-0.2,1.25,0.08,1.8
		c1.76,3.44,12.1,2.82,12.81,0.39C348.86,10.96,347.97,9.71,346.97,9.39z"/>
	<path class="st4" d="M351.35,17.44c-1.83-0.43-2.8,1.19-5.59,1.64c-4.42,0.72-8.13-2.34-9.32-1.41c-0.5,0.39-0.27,1.25,0.1,1.8
		c2.34,3.44,16.05,2.82,16.99,0.39C353.85,19,352.67,17.75,351.35,17.44z"/>
	<path class="st4" d="M351.35,26.27c-1.83-0.43-2.8,1.19-5.59,1.64c-4.42,0.72-8.13-2.34-9.32-1.41c-0.5,0.39-0.27,1.25,0.1,1.8
		c2.34,3.44,16.05,2.82,16.99,0.39C353.85,27.83,352.67,26.58,351.35,26.27z"/>
	<path class="st3" d="M321.77-11.09c-9.35-2.32-19.55,5.49-24.69,12.81c-5.15,7.34-8.92,19.5-4.84,22.81
		c3.14,2.55,14.49-5.96,37.19-22.97c0.74-0.55,2.33-1.78,2.5-3.59C332.26-5.68,326.64-9.88,321.77-11.09z"/>
	<path class="st3" d="M349.12-11.09c9.35-2.32,19.55,5.49,24.69,12.81c5.15,7.34,8.92,19.5,4.84,22.81
		c-3.14,2.55-14.49-5.96-37.19-22.97c-0.74-0.55-2.33-1.78-2.5-3.59C338.63-5.68,344.25-9.88,349.12-11.09z"/>
	<path class="st4" d="M333.1-20.84c1.28-1.2-0.62-6.67-4.38-8.91c-0.64-0.38-2.1-1.25-3.44-0.7c-0.76,0.31-1.65,1.15-1.48,1.95
		c0.12,0.56,0.73,1.02,1.33,1.09c1,0.12,1.37-0.9,2.5-1.02c1.1-0.11,2.03,0.73,2.42,1.09c1.74,1.59,1.72,4.16,1.72,4.3
		c-0.02,1.2-0.43,2,0,2.34C332.09-20.43,332.76-20.52,333.1-20.84z"/>
	<path class="st4" d="M337.95-20.84c-1.28-1.2,0.62-6.67,4.38-8.91c0.64-0.38,2.1-1.25,3.44-0.7c0.76,0.31,1.65,1.15,1.48,1.95
		c-0.12,0.56-0.73,1.02-1.33,1.09c-1,0.12-1.37-0.9-2.5-1.02c-1.1-0.11-2.03,0.73-2.42,1.09c-1.74,1.59-1.72,4.16-1.72,4.3
		c0.02,1.2,0.43,2,0,2.34C338.96-20.43,338.3-20.52,337.95-20.84z"/>
</g>
<g class="st1">
	<path class="st2" d="M662.09,271.81c1.07,7.53-6.64,19.38-18.2,19.38c-11.27,0-18.9-11.23-18.2-19.38c0.38-4.4,3.72-8.48,4.94-9.86
		c0.1-0.12,0.22-0.24,0.37-0.41c1.01-1.11,3.66-4.02,5.94-5.78c2.31-1.78,4.31-3.32,6.95-3.31c2.6,0,4.49,1.5,7.73,4.1
		c2.92,2.34,4.71,4.58,5.16,5.16C658.16,263.45,661.51,267.73,662.09,271.81z"/>
	<circle class="st3" cx="643.91" cy="238.56" r="8.44"/>
	<rect x="641.61" y="247" class="st4" width="4.15" height="67.81"/>
	<rect x="645.76" y="310.49" class="st4" width="15.23" height="4.32"/>
	<rect x="645.76" y="299.4" class="st4" width="15.23" height="4.32"/>
	<path class="st4" d="M632.24,262.23c1.38-0.43,2.11,1.19,4.22,1.64c3.33,0.72,6.13-2.34,7.03-1.41c0.38,0.39,0.2,1.25-0.08,1.8
		c-1.76,3.44-12.1,2.82-12.81,0.39C630.35,263.8,631.25,262.55,632.24,262.23z"/>
	<path class="st4" d="M627.87,270.28c1.83-0.43,2.8,1.19,5.59,1.64c4.42,0.72,8.13-2.34,9.32-1.41c0.5,0.39,0.27,1.25-0.1,1.8
		c-2.34,3.44-16.05,2.82-16.99,0.39C625.36,271.85,626.55,270.59,627.87,270.28z"/>
	<path class="st4" d="M627.87,279.11c1.83-0.43,2.8,1.19,5.59,1.64c4.42,0.72,8.13-2.34,9.32-1.41c0.5,0.39,0.27,1.25-0.1,1.8
		c-2.34,3.44-16.05,2.82-16.99,0.39C625.36,280.67,626.55,279.42,627.87,279.11z"/>
	<path class="st4" d="M655.18,262.23c-1.38-0.43-2.11,1.19-4.22,1.64c-3.33,0.72-6.13-2.34-7.03-1.41c-0.38,0.39-0.2,1.25,0.08,1.8
		c1.76,3.44,12.1,2.82,12.81,0.39C657.07,263.8,656.17,262.55,655.18,262.23z"/>
	<path class="st4" d="M659.55,270.28c-1.83-0.43-2.8,1.19-5.59,1.64c-4.42,0.72-8.13-2.34-9.32-1.41c-0.5,0.39-0.27,1.25,0.1,1.8
		c2.34,3.44,16.05,2.82,16.99,0.39C662.06,271.85,660.87,270.59,659.55,270.28z"/>
	<path class="st4" d="M659.55,279.11c-1.83-0.43-2.8,1.19-5.59,1.64c-4.42,0.72-8.13-2.34-9.32-1.41c-0.5,0.39-0.27,1.25,0.1,1.8
		c2.34,3.44,16.05,2.82,16.99,0.39C662.06,280.67,660.87,279.42,659.55,279.11z"/>
	<path class="st3" d="M629.97,241.75c-9.35-2.32-19.55,5.49-24.69,12.81c-5.15,7.34-8.92,19.5-4.84,22.81
		c3.14,2.55,14.49-5.96,37.19-22.97c0.74-0.55,2.33-1.78,2.5-3.59C640.47,247.16,634.84,242.96,629.97,241.75z"/>
	<path class="st3" d="M657.33,241.75c9.35-2.32,19.55,5.49,24.69,12.81c5.15,7.34,8.92,19.5,4.84,22.81
		c-3.14,2.55-14.49-5.96-37.19-22.97c-0.74-0.55-2.33-1.78-2.5-3.59C646.83,247.16,652.45,242.96,657.33,241.75z"/>
	<path class="st4" d="M641.31,232c1.28-1.2-0.62-6.67-4.38-8.91c-0.64-0.38-2.1-1.25-3.44-0.7c-0.76,0.31-1.65,1.15-1.48,1.95
		c0.12,0.56,0.73,1.02,1.33,1.09c1,0.12,1.37-0.9,2.5-1.02c1.1-0.11,2.03,0.73,2.42,1.09c1.74,1.59,1.72,4.16,1.72,4.3
		c-0.02,1.2-0.43,2,0,2.34C640.3,232.41,640.96,232.32,641.31,232z"/>
	<path class="st4" d="M646.16,232c-1.28-1.2,0.62-6.67,4.38-8.91c0.64-0.38,2.1-1.25,3.44-0.7c0.76,0.31,1.65,1.15,1.48,1.95
		c-0.12,0.56-0.73,1.02-1.33,1.09c-1,0.12-1.37-0.9-2.5-1.02c-1.1-0.11-2.03,0.73-2.42,1.09c-1.74,1.59-1.72,4.16-1.72,4.3
		c0.02,1.2,0.43,2,0,2.34C647.17,232.41,646.51,232.32,646.16,232z"/>
</g>
<g class="st1">
	<path class="st2" d="M852.31,158.29c1.07,7.53-6.64,19.38-18.2,19.38c-11.27,0-18.9-11.23-18.2-19.38c0.38-4.4,3.72-8.48,4.94-9.86
		c0.1-0.12,0.22-0.24,0.37-0.41c1.01-1.11,3.66-4.02,5.94-5.78c2.31-1.78,4.31-3.32,6.95-3.31c2.6,0,4.49,1.5,7.73,4.1
		c2.92,2.34,4.71,4.58,5.16,5.16C848.37,149.93,851.73,154.21,852.31,158.29z"/>
	<circle class="st3" cx="834.13" cy="125.04" r="8.44"/>
	<rect x="831.82" y="133.48" class="st4" width="4.15" height="67.81"/>
	<rect x="835.98" y="196.97" class="st4" width="15.23" height="4.32"/>
	<rect x="835.98" y="185.88" class="st4" width="15.23" height="4.32"/>
	<path class="st4" d="M822.46,148.71c1.38-0.43,2.11,1.19,4.22,1.64c3.33,0.72,6.13-2.34,7.03-1.41c0.38,0.39,0.2,1.25-0.08,1.8
		c-1.76,3.44-12.1,2.82-12.81,0.39C820.57,150.28,821.46,149.03,822.46,148.71z"/>
	<path class="st4" d="M818.09,156.76c1.83-0.43,2.8,1.19,5.59,1.64c4.42,0.72,8.13-2.34,9.32-1.41c0.5,0.39,0.27,1.25-0.1,1.8
		c-2.34,3.44-16.05,2.82-16.99,0.39C815.58,158.32,816.76,157.07,818.09,156.76z"/>
	<path class="st4" d="M818.09,165.59c1.83-0.43,2.8,1.19,5.59,1.64c4.42,0.72,8.13-2.34,9.32-1.41c0.5,0.39,0.27,1.25-0.1,1.8
		c-2.34,3.44-16.05,2.82-16.99,0.39C815.58,167.15,816.76,165.9,818.09,165.59z"/>
	<path class="st4" d="M845.39,148.71c-1.38-0.43-2.11,1.19-4.22,1.64c-3.33,0.72-6.13-2.34-7.03-1.41c-0.38,0.39-0.2,1.25,0.08,1.8
		c1.76,3.44,12.1,2.82,12.81,0.39C847.28,150.28,846.39,149.03,845.39,148.71z"/>
	<path class="st4" d="M849.77,156.76c-1.83-0.43-2.8,1.19-5.59,1.64c-4.42,0.72-8.13-2.34-9.32-1.41c-0.5,0.39-0.27,1.25,0.1,1.8
		c2.34,3.44,16.05,2.82,16.99,0.39C852.28,158.32,851.09,157.07,849.77,156.76z"/>
	<path class="st4" d="M849.77,165.59c-1.83-0.43-2.8,1.19-5.59,1.64c-4.42,0.72-8.13-2.34-9.32-1.41c-0.5,0.39-0.27,1.25,0.1,1.8
		c2.34,3.44,16.05,2.82,16.99,0.39C852.28,167.15,851.09,165.9,849.77,165.59z"/>
	<path class="st3" d="M820.19,128.23c-9.35-2.32-19.55,5.49-24.69,12.81c-5.15,7.34-8.92,19.5-4.84,22.81
		c3.14,2.55,14.49-5.96,37.19-22.97c0.74-0.55,2.33-1.78,2.5-3.59C830.68,133.64,825.06,129.44,820.19,128.23z"/>
	<path class="st3" d="M847.54,128.23c9.35-2.32,19.55,5.49,24.69,12.81c5.15,7.34,8.92,19.5,4.84,22.81
		c-3.14,2.55-14.49-5.96-37.19-22.97c-0.74-0.55-2.33-1.78-2.5-3.59C837.05,133.64,842.67,129.44,847.54,128.23z"/>
	<path class="st4" d="M831.52,118.48c1.28-1.2-0.62-6.67-4.38-8.91c-0.64-0.38-2.1-1.25-3.44-0.7c-0.76,0.31-1.65,1.15-1.48,1.95
		c0.12,0.56,0.73,1.02,1.33,1.09c1,0.12,1.37-0.9,2.5-1.02c1.1-0.11,2.03,0.73,2.42,1.09c1.74,1.59,1.72,4.16,1.72,4.3
		c-0.02,1.2-0.43,2,0,2.34C830.51,118.89,831.18,118.8,831.52,118.48z"/>
	<path class="st4" d="M836.38,118.48c-1.28-1.2,0.62-6.67,4.38-8.91c0.64-0.38,2.1-1.25,3.44-0.7c0.76,0.31,1.65,1.15,1.48,1.95
		c-0.12,0.56-0.73,1.02-1.33,1.09c-1,0.12-1.37-0.9-2.5-1.02c-1.1-0.11-2.03,0.73-2.42,1.09c-1.74,1.59-1.72,4.16-1.72,4.3
		c0.02,1.2,0.43,2,0,2.34C837.39,118.89,836.72,118.8,836.38,118.48z"/>
</g>
<g class="st1">
	<path class="st2" d="M426.39,379.09c1.07,7.53-6.64,19.38-18.2,19.38c-11.27,0-18.9-11.23-18.2-19.38c0.38-4.4,3.72-8.48,4.94-9.86
		c0.1-0.12,0.22-0.24,0.37-0.41c1.01-1.11,3.66-4.02,5.94-5.78c2.31-1.78,4.31-3.32,6.95-3.31c2.6,0,4.49,1.5,7.73,4.1
		c2.92,2.34,4.71,4.58,5.16,5.16C422.46,370.73,425.81,375.01,426.39,379.09z"/>
	<circle class="st3" cx="408.21" cy="345.84" r="8.44"/>
	<rect x="405.91" y="354.28" class="st4" width="4.15" height="67.81"/>
	<rect x="410.06" y="417.77" class="st4" width="15.23" height="4.32"/>
	<rect x="410.06" y="406.68" class="st4" width="15.23" height="4.32"/>
	<path class="st4" d="M396.55,369.51c1.38-0.43,2.11,1.19,4.22,1.64c3.33,0.72,6.13-2.34,7.03-1.41c0.38,0.39,0.2,1.25-0.08,1.8
		c-1.76,3.44-12.1,2.82-12.81,0.39C394.66,371.08,395.55,369.83,396.55,369.51z"/>
	<path class="st4" d="M392.17,377.56c1.83-0.43,2.8,1.19,5.59,1.64c4.42,0.72,8.13-2.34,9.32-1.41c0.5,0.39,0.27,1.25-0.1,1.8
		c-2.34,3.44-16.05,2.82-16.99,0.39C389.66,379.13,390.85,377.87,392.17,377.56z"/>
	<path class="st4" d="M392.17,386.39c1.83-0.43,2.8,1.19,5.59,1.64c4.42,0.72,8.13-2.34,9.32-1.41c0.5,0.39,0.27,1.25-0.1,1.8
		c-2.34,3.44-16.05,2.82-16.99,0.39C389.66,387.95,390.85,386.7,392.17,386.39z"/>
	<path class="st4" d="M419.48,369.51c-1.38-0.43-2.11,1.19-4.22,1.64c-3.33,0.72-6.13-2.34-7.03-1.41c-0.38,0.39-0.2,1.25,0.08,1.8
		c1.76,3.44,12.1,2.82,12.81,0.39C421.37,371.08,420.48,369.83,419.48,369.51z"/>
	<path class="st4" d="M423.85,377.56c-1.83-0.43-2.8,1.19-5.59,1.64c-4.42,0.72-8.13-2.34-9.32-1.41c-0.5,0.39-0.27,1.25,0.1,1.8
		c2.34,3.44,16.05,2.82,16.99,0.39C426.36,379.13,425.18,377.87,423.85,377.56z"/>
	<path class="st4" d="M423.85,386.39c-1.83-0.43-2.8,1.19-5.59,1.64c-4.42,0.72-8.13-2.34-9.32-1.41c-0.5,0.39-0.27,1.25,0.1,1.8
		c2.34,3.44,16.05,2.82,16.99,0.39C426.36,387.95,425.18,386.7,423.85,386.39z"/>
	<path class="st3" d="M394.27,349.03c-9.35-2.32-19.55,5.49-24.69,12.81c-5.15,7.34-8.92,19.5-4.84,22.81
		c3.14,2.55,14.49-5.96,37.19-22.97c0.74-0.55,2.33-1.78,2.5-3.59C404.77,354.44,399.14,350.24,394.27,349.03z"/>
	<path class="st3" d="M421.63,349.03c9.35-2.32,19.55,5.49,24.69,12.81c5.15,7.34,8.92,19.5,4.84,22.81
		c-3.14,2.55-14.49-5.96-37.19-22.97c-0.74-0.55-2.33-1.78-2.5-3.59C411.13,354.44,416.75,350.24,421.63,349.03z"/>
	<path class="st4" d="M405.61,339.28c1.28-1.2-0.62-6.67-4.38-8.91c-0.64-0.38-2.1-1.25-3.44-0.7c-0.76,0.31-1.65,1.15-1.48,1.95
		c0.12,0.56,0.73,1.02,1.33,1.09c1,0.12,1.37-0.9,2.5-1.02c1.1-0.11,2.03,0.73,2.42,1.09c1.74,1.59,1.72,4.16,1.72,4.3
		c-0.02,1.2-0.43,2,0,2.34C404.6,339.69,405.26,339.6,405.61,339.28z"/>
	<path class="st4" d="M410.46,339.28c-1.28-1.2,0.62-6.67,4.38-8.91c0.64-0.38,2.1-1.25,3.44-0.7c0.76,0.31,1.65,1.15,1.48,1.95
		c-0.12,0.56-0.73,1.02-1.33,1.09c-1,0.12-1.37-0.9-2.5-1.02c-1.1-0.11-2.03,0.73-2.42,1.09c-1.74,1.59-1.72,4.16-1.72,4.3
		c0.02,1.2,0.43,2,0,2.34C411.47,339.69,410.81,339.6,410.46,339.28z"/>
</g>
<g class="st1">
	<path class="st2" d="M31.23,326.48c-4.43,6.18-18.19,9.41-26.55,1.42c-8.15-7.79-5.9-21.18,0.24-26.58
		c3.31-2.92,8.55-3.56,10.39-3.71c0.16-0.01,0.33-0.03,0.56-0.04c1.5-0.11,5.42-0.38,8.29-0.07c2.9,0.31,5.41,0.58,7.32,2.41
		c1.88,1.8,2.21,4.19,2.76,8.31c0.49,3.71,0.23,6.57,0.16,7.29C34.17,317.72,33.63,323.13,31.23,326.48z"/>
	<circle class="st3" cx="41.08" cy="289.89" r="8.44"/>
	
		<rect x="9.57" y="286.42" transform="matrix(0.7226 0.6912 -0.6912 0.7226 224.6512 80.7992)" class="st4" width="4.15" height="67.81"/>
	
		<rect x="-10.91" y="347.81" transform="matrix(0.7226 0.6912 -0.6912 0.7226 240.998 99.3491)" class="st4" width="15.23" height="4.32"/>
	
		<rect x="-3.24" y="339.8" transform="matrix(0.7226 0.6912 -0.6912 0.7226 237.5836 91.8248)" class="st4" width="15.23" height="4.32"/>
	<path class="st4" d="M16.29,298.93c1.3,0.64,0.7,2.32,1.91,4.1c1.91,2.82,6.05,2.55,6.05,3.84c0,0.54-0.72,1.04-1.3,1.24
		c-3.66,1.27-10.7-6.33-9.53-8.57C13.84,298.75,15.35,298.46,16.29,298.93z"/>
	<path class="st4" d="M7.56,301.72c1.62,0.95,1.2,2.79,2.91,5.05c2.7,3.57,7.49,3.93,7.71,5.43c0.09,0.63-0.67,1.09-1.32,1.23
		c-4.07,0.87-13.55-9.05-12.55-11.46C4.67,301.12,6.39,301.03,7.56,301.72z"/>
	<path class="st4" d="M1.46,308.1c1.62,0.95,1.2,2.79,2.91,5.05c2.7,3.57,7.49,3.93,7.71,5.43c0.09,0.63-0.67,1.09-1.32,1.23
		c-4.07,0.87-13.55-9.05-12.55-11.46C-1.43,307.5,0.29,307.41,1.46,308.1z"/>
	<path class="st4" d="M32.86,314.78c-0.7-1.27-2.34-0.6-4.18-1.73c-2.9-1.79-2.82-5.93-4.11-5.88c-0.54,0.02-1.01,0.77-1.19,1.35
		c-1.11,3.71,6.79,10.41,8.99,9.14C33.14,317.22,33.36,315.7,32.86,314.78z"/>
	<path class="st4" d="M30.46,323.62c-1.02-1.58-2.84-1.07-5.18-2.68c-3.69-2.54-4.26-7.31-5.76-7.46c-0.63-0.06-1.06,0.72-1.17,1.37
		c-0.69,4.11,9.64,13.13,12.01,12.02C31.19,326.48,31.2,324.76,30.46,323.62z"/>
	<path class="st4" d="M24.35,330c-1.02-1.58-2.84-1.07-5.18-2.68c-3.69-2.54-4.26-7.31-5.76-7.46c-0.63-0.06-1.06,0.72-1.17,1.37
		c-0.69,4.11,9.64,13.13,12.01,12.02C25.08,332.86,25.09,331.14,24.35,330z"/>
	<path class="st3" d="M28.8,282.55c-5.15-8.14-17.92-9.55-26.7-7.81c-8.8,1.75-19.93,7.93-19.27,13.14
		c0.51,4.02,14.59,5.71,42.75,9.11c0.91,0.11,2.92,0.32,4.29-0.87C32.64,293.72,31.48,286.8,28.8,282.55z"/>
	<path class="st3" d="M48.57,301.46c8.36,4.79,10.34,17.48,8.98,26.32c-1.36,8.87-7.04,20.26-12.27,19.83
		c-4.03-0.33-6.35-14.32-11-42.3c-0.15-0.91-0.45-2.9,0.68-4.33C37.24,298.12,44.21,298.97,48.57,301.46z"/>
	<path class="st4" d="M43.73,283.34c1.75,0.02,4.16-5.25,2.99-9.46c-0.2-0.71-0.65-2.35-2-2.88c-0.76-0.3-1.99-0.31-2.42,0.39
		c-0.3,0.48-0.18,1.24,0.2,1.71c0.64,0.78,1.61,0.3,2.51,0.99c0.88,0.68,0.96,1.93,0.99,2.46c0.16,2.35-1.63,4.19-1.73,4.29
		c-0.85,0.85-1.69,1.15-1.62,1.69C42.72,282.94,43.26,283.34,43.73,283.34z"/>
	<path class="st4" d="M47.24,286.7c-0.1-1.75,5.06-4.39,9.32-3.41c0.72,0.17,2.38,0.55,2.97,1.87c0.33,0.75,0.4,1.97-0.28,2.44
		c-0.47,0.32-1.23,0.23-1.72-0.13c-0.81-0.6-0.37-1.6-1.1-2.46c-0.72-0.84-1.97-0.87-2.51-0.88c-2.35-0.05-4.12,1.81-4.21,1.92
		c-0.81,0.89-1.07,1.74-1.62,1.69C47.69,287.69,47.27,287.17,47.24,286.7z"/>
</g>
</svg>
