<svg width="100%" height="100%" viewBox="0 0 800 600" xmlns="http://www.w3.org/2000/svg">
  <rect width="800" height="600" fill="#f9fafb" />
  <g opacity="0.1" stroke="#f59e0b" stroke-width="2" fill="none">
    <polygon points="100,50 125,75 100,100 75,75" />
    <polygon points="200,100 225,125 200,150 175,125" />
    <polygon points="300,50 325,75 300,100 275,75" />
    <polygon points="400,100 425,125 400,150 375,125" />
    <polygon points="500,50 525,75 500,100 475,75" />
    <polygon points="600,100 625,125 600,150 575,125" />
    <polygon points="700,50 725,75 700,100 675,75" />
  </g>
</svg>
