<?xml version="1.0" encoding="utf-8"?>
<!-- Generator: Adobe Illustrator 24.1.3, SVG Export Plug-In . SVG Version: 6.00 Build 0)  -->
<svg version="1.1" id="Layer_1" xmlns="http://www.w3.org/2000/svg" xmlns:xlink="http://www.w3.org/1999/xlink" x="0px" y="0px"
	 viewBox="0 0 841.89 595.28" style="enable-background:new 0 0 841.89 595.28;" xml:space="preserve">
<style type="text/css">
	.st0{fill:#FFFFFF;stroke:#000000;stroke-width:19.1191;stroke-miterlimit:10;}
	.st1{fill:none;stroke:#000000;stroke-width:10.9252;stroke-miterlimit:10;}
	.st2{fill:#020202;stroke:#000000;stroke-width:1.163;stroke-miterlimit:10;}
	.st3{fill:#020202;}
	.st4{fill:#020202;stroke:#000000;stroke-width:1.2231;stroke-miterlimit:10;}
	.st5{fill:#020202;stroke:#000000;stroke-width:1.4084;stroke-miterlimit:10;}
	.st6{fill:none;stroke:#000000;stroke-width:13.6565;stroke-miterlimit:10;}
</style>
<g>
	<path class="st0" d="M457.59,295.92c3.16,22.28-19.64,57.35-53.88,57.35c-33.37,0-55.95-33.24-53.88-57.35
		c1.12-13.02,11-25.1,14.62-29.2c0.31-0.35,0.64-0.72,1.11-1.23c2.99-3.29,10.82-11.91,17.58-17.11c6.83-5.26,12.75-9.83,20.58-9.81
		c7.71,0.01,13.3,4.43,22.89,12.12c8.64,6.92,13.94,13.57,15.26,15.26C445.94,271.17,455.88,283.87,457.59,295.92z"/>
	<circle class="st1" cx="403.78" cy="197.51" r="24.98"/>
	<rect x="396.96" y="222.48" class="st2" width="12.3" height="200.73"/>
	<rect x="409.25" y="410.95" class="st3" width="45.09" height="12.78"/>
	<rect x="409.25" y="377.6" class="st3" width="45.09" height="12.78"/>
	<path class="st4" d="M369.25,267.58c4.08-1.28,6.24,3.52,12.49,4.86c9.86,2.12,18.15-6.92,20.81-4.16
		c1.12,1.16,0.59,3.71-0.23,5.32c-5.22,10.19-35.82,8.36-37.93,1.16C363.65,272.21,366.29,268.51,369.25,267.58z"/>
	<path class="st5" d="M356.3,291.4c5.41-1.28,8.28,3.52,16.56,4.86c13.08,2.12,24.06-6.92,27.59-4.16c1.48,1.16,0.79,3.71-0.31,5.32
		c-6.92,10.19-47.5,8.36-50.28,1.16C348.88,296.03,352.38,292.33,356.3,291.4z"/>
	<path class="st5" d="M356.3,317.53c5.41-1.28,8.28,3.52,16.56,4.86c13.08,2.12,24.06-6.92,27.59-4.16
		c1.48,1.16,0.79,3.71-0.31,5.32c-6.92,10.19-47.5,8.36-50.28,1.16C348.88,322.16,352.38,318.46,356.3,317.53z"/>
	<path class="st4" d="M437.13,267.58c-4.08-1.28-6.24,3.52-12.49,4.86c-9.86,2.12-18.15-6.92-20.81-4.16
		c-1.12,1.16-0.59,3.71,0.23,5.32c5.22,10.19,35.82,8.36,37.93,1.16C442.72,272.21,440.08,268.51,437.13,267.58z"/>
	<path class="st5" d="M450.08,291.4c-5.41-1.28-8.28,3.52-16.56,4.86c-13.08,2.12-24.06-6.92-27.59-4.16
		c-1.48,1.16-0.79,3.71,0.31,5.32c6.92,10.19,47.5,8.36,50.28,1.16C457.5,296.03,453.99,292.33,450.08,291.4z"/>
	<path class="st5" d="M450.08,317.53c-5.41-1.28-8.28,3.52-16.56,4.86c-13.08,2.12-24.06-6.92-27.59-4.16
		c-1.48,1.16-0.79,3.71,0.31,5.32c6.92,10.19,47.5,8.36,50.28,1.16C457.5,322.16,453.99,318.46,450.08,317.53z"/>
	<path class="st6" d="M362.51,206.95c-27.67-6.87-57.87,16.24-73.08,37.93c-15.24,21.74-26.4,57.73-14.34,67.53
		c9.3,7.55,42.89-17.63,110.08-67.99c2.18-1.63,6.9-5.28,7.4-10.64C393.58,222.98,376.94,210.53,362.51,206.95z"/>
	<path class="st6" d="M443.49,206.95c27.67-6.87,57.87,16.24,73.08,37.93c15.24,21.74,26.4,57.73,14.34,67.53
		c-9.3,7.55-42.89-17.63-110.08-67.99c-2.18-1.63-6.9-5.28-7.4-10.64C412.42,222.98,429.06,210.53,443.49,206.95z"/>
	<path class="st4" d="M396.07,178.08c3.79-3.54-1.84-19.74-12.95-26.36c-1.88-1.12-6.21-3.7-10.18-2.08
		c-2.25,0.92-4.89,3.4-4.39,5.78c0.35,1.65,2.15,3.02,3.93,3.24c2.97,0.37,4.06-2.66,7.4-3.01c3.27-0.34,6,2.16,7.17,3.24
		c5.14,4.71,5.1,12.31,5.09,12.72c-0.07,3.56-1.27,5.92,0,6.94C393.08,179.3,395.05,179.04,396.07,178.08z"/>
	<path class="st4" d="M410.43,178.08c-3.79-3.54,1.84-19.74,12.95-26.36c1.88-1.12,6.21-3.7,10.18-2.08
		c2.25,0.92,4.89,3.4,4.39,5.78c-0.35,1.65-2.15,3.02-3.93,3.24c-2.97,0.37-4.06-2.66-7.4-3.01c-3.27-0.34-6,2.16-7.17,3.24
		c-5.14,4.71-5.1,12.31-5.09,12.72c0.07,3.56,1.27,5.92,0,6.94C413.42,179.3,411.46,179.04,410.43,178.08z"/>
</g>
</svg>
