<?xml version="1.0" encoding="utf-8"?>
<!-- Generator: Adobe Illustrator 24.1.3, SVG Export Plug-In . SVG Version: 6.00 Build 0)  -->
<svg version="1.1" id="Layer_1" xmlns="http://www.w3.org/2000/svg" xmlns:xlink="http://www.w3.org/1999/xlink" x="0px" y="0px"
	 viewBox="0 0 841.89 595.28" style="enable-background:new 0 0 841.89 595.28;" xml:space="preserve">
<style type="text/css">
	.st0{fill:none;stroke:#000000;stroke-width:37.4362;stroke-miterlimit:10;}
	.st1{fill:none;stroke:#000000;stroke-width:21.3921;stroke-miterlimit:10;}
	.st2{fill:#020202;stroke:#000000;stroke-width:2.2772;stroke-miterlimit:10;}
	.st3{fill:#020202;}
	.st4{fill:#020202;stroke:#000000;stroke-width:2.3949;stroke-miterlimit:10;}
	.st5{fill:#020202;stroke:#000000;stroke-width:2.7577;stroke-miterlimit:10;}
	.st6{fill:none;stroke:#000000;stroke-width:26.7402;stroke-miterlimit:10;}
</style>
<g>
	<path class="st0" d="M507.16,316.23c6.19,43.63-38.46,112.29-105.5,112.29c-65.34,0-109.55-65.09-105.5-112.29
		c2.19-25.49,21.54-49.15,28.63-57.18c0.61-0.69,1.25-1.41,2.17-2.41c5.85-6.44,21.19-23.32,34.42-33.5
		c13.37-10.3,24.97-19.25,40.3-19.21c15.1,0.02,26.04,8.67,44.82,23.73c16.92,13.55,27.3,26.57,29.88,29.88
		C484.35,267.77,503.81,292.64,507.16,316.23z"/>
	<circle class="st1" cx="401.79" cy="123.54" r="48.91"/>
	<rect x="388.44" y="172.43" class="st2" width="24.08" height="393.04"/>
	<rect x="412.5" y="541.47" class="st3" width="88.29" height="25.02"/>
	<rect x="412.5" y="476.17" class="st3" width="88.29" height="25.02"/>
	<path class="st4" d="M334.18,260.74c7.99-2.51,12.22,6.89,24.46,9.52c19.31,4.15,35.54-13.55,40.75-8.15
		c2.19,2.27,1.16,7.26-0.45,10.42c-10.22,19.95-70.14,16.37-74.27,2.27C323.22,269.81,328.39,262.56,334.18,260.74z"/>
	<path class="st5" d="M308.83,307.38c10.59-2.51,16.21,6.89,32.43,9.52c25.61,4.15,47.11-13.55,54.02-8.15
		c2.9,2.27,1.55,7.26-0.61,10.42c-13.55,19.95-93.01,16.37-98.45,2.27C294.3,316.45,301.15,309.2,308.83,307.38z"/>
	<path class="st5" d="M308.83,358.55c10.59-2.51,16.21,6.89,32.43,9.52c25.61,4.15,47.11-13.55,54.02-8.15
		c2.9,2.27,1.55,7.26-0.61,10.42c-13.55,19.95-93.01,16.37-98.45,2.27C294.3,367.61,301.15,360.37,308.83,358.55z"/>
	<path class="st4" d="M467.09,260.74c-7.99-2.51-12.22,6.89-24.46,9.52c-19.31,4.15-35.54-13.55-40.75-8.15
		c-2.19,2.27-1.16,7.26,0.45,10.42c10.22,19.95,70.14,16.37,74.27,2.27C478.04,269.81,472.87,262.56,467.09,260.74z"/>
	<path class="st5" d="M492.45,307.38c-10.59-2.51-16.21,6.89-32.43,9.52c-25.61,4.15-47.11-13.55-54.02-8.15
		c-2.9,2.27-1.55,7.26,0.61,10.42c13.55,19.95,93.01,16.37,98.45,2.27C506.98,316.45,500.11,309.2,492.45,307.38z"/>
	<path class="st5" d="M492.45,358.55c-10.59-2.51-16.21,6.89-32.43,9.52c-25.61,4.15-47.11-13.55-54.02-8.15
		c-2.9,2.27-1.55,7.26,0.61,10.42c13.55,19.95,93.01,16.37,98.45,2.27C506.98,367.61,500.11,360.37,492.45,358.55z"/>
	<path class="st6" d="M320.98,142.02c-54.18-13.45-113.31,31.8-143.09,74.27c-29.84,42.57-51.69,113.04-28.08,132.23
		c18.21,14.78,83.98-34.52,215.54-133.13c4.27-3.19,13.51-10.34,14.49-20.83C381.82,173.41,349.24,149.03,320.98,142.02z"/>
	<path class="st6" d="M479.55,142.02c54.18-13.45,113.31,31.8,143.09,74.27c29.84,42.57,51.69,113.04,28.08,132.23
		C632.51,363.3,566.74,314,435.18,215.39c-4.27-3.19-13.51-10.34-14.49-20.83C418.71,173.41,451.29,149.03,479.55,142.02z"/>
	<path class="st4" d="M386.7,85.49c7.42-6.93-3.6-38.65-25.36-51.61c-3.68-2.19-12.16-7.24-19.93-4.07
		c-4.41,1.8-9.57,6.66-8.6,11.32c0.69,3.23,4.21,5.91,7.7,6.34c5.82,0.72,7.95-5.21,14.49-5.89c6.4-0.67,11.75,4.23,14.04,6.34
		c10.06,9.22,9.99,24.1,9.97,24.91c-0.14,6.97-2.49,11.59,0,13.59C380.84,87.88,384.7,87.37,386.7,85.49z"/>
	<path class="st4" d="M414.81,85.49c-7.42-6.93,3.6-38.65,25.36-51.61c3.68-2.19,12.16-7.24,19.93-4.07
		c4.41,1.8,9.57,6.66,8.6,11.32c-0.69,3.23-4.21,5.91-7.7,6.34c-5.82,0.72-7.95-5.21-14.49-5.89c-6.4-0.67-11.75,4.23-14.04,6.34
		c-10.06,9.22-9.99,24.1-9.97,24.91c0.14,6.97,2.49,11.59,0,13.59C420.67,87.88,416.83,87.37,414.81,85.49z"/>
</g>
</svg>
